<svg width="182" height="30" viewBox="0 0 182 30" fill="none" xmlns="http://www.w3.org/2000/svg">
<path d="M6.95422 0.719998C7.00755 0.693332 7.24755 0.679999 7.67422 0.679999C10.9009 0.813332 14.2609 0.826665 17.7542 0.719998C18.6076 0.693332 19.0876 0.773332 19.1942 0.959998C19.2476 1.04 19.2076 1.34666 19.0742 1.88C18.9409 2.38667 18.8476 2.69333 18.7942 2.8L18.6742 2.92H17.2742C15.9409 2.94666 15.1676 3.01333 14.9542 3.12C14.7942 3.17333 14.6876 3.30667 14.6342 3.52C14.5009 3.84 14.1009 5.34667 13.4342 8.04L12.2742 12.68H17.8742L23.4742 12.64L24.6742 7.96C25.4476 4.86666 25.8342 3.28 25.8342 3.2C25.8342 3.17333 25.8076 3.13333 25.7542 3.08C25.6476 3.02667 24.9276 2.97333 23.5942 2.92H22.2342L22.0742 2.76C21.9942 2.68 21.9542 2.6 21.9542 2.52L22.3942 0.879999C22.4742 0.746665 22.8209 0.693332 23.4342 0.719998C23.5409 0.719998 23.7542 0.719998 24.0742 0.719998C26.2609 0.826665 29.0342 0.839998 32.3942 0.759998C32.7142 0.733332 32.9809 0.719998 33.1942 0.719998C34.1276 0.693332 34.6476 0.773332 34.7542 0.959998C34.8076 1.04 34.7676 1.34666 34.6342 1.88C34.5009 2.38667 34.4076 2.69333 34.3542 2.8L34.2342 2.92H32.8342C31.5009 2.94666 30.7276 3.01333 30.5142 3.12C30.3809 3.17333 30.3009 3.25333 30.2742 3.36C30.1142 3.76 29.1676 7.42667 27.4342 14.36C25.5942 21.72 24.6609 25.4133 24.6342 25.44C24.6076 25.5467 24.7276 25.6133 24.9942 25.64C25.3142 25.6933 25.9409 25.7333 26.8742 25.76C27.8609 25.76 28.4076 25.8533 28.5142 26.04C28.5409 26.12 28.5009 26.4267 28.3942 26.96C28.2609 27.4667 28.1409 27.7733 28.0342 27.88L27.9142 28H27.2742C24.3676 27.8667 21.0076 27.8533 17.1942 27.96C16.3142 27.9867 15.8209 27.9067 15.7142 27.72C15.6876 27.64 15.7276 27.3333 15.8342 26.8C15.9942 26.2667 16.1009 25.96 16.1542 25.88L16.3142 25.76H17.6742C19.1676 25.7333 20.0076 25.6267 20.1942 25.44C20.2742 25.3867 20.7542 23.6267 21.6342 20.16L22.9142 14.96C22.9142 14.9333 21.0476 14.92 17.3142 14.92H11.7142L10.3942 20.2C9.51422 23.7467 9.08755 25.5333 9.11422 25.56C9.16755 25.6133 9.26089 25.64 9.39422 25.64C9.71422 25.72 10.5142 25.76 11.7942 25.76C12.4609 25.76 12.8476 25.8533 12.9542 26.04C12.9809 26.1467 12.9409 26.4533 12.8342 26.96C12.7009 27.4667 12.5809 27.7733 12.4742 27.88L12.3542 28H11.7142C8.80755 27.8667 5.44755 27.8533 1.63422 27.96C0.754219 27.9867 0.260885 27.9067 0.154219 27.72C0.127552 27.64 0.167552 27.3333 0.274219 26.8C0.434219 26.2667 0.540886 25.96 0.594219 25.88L0.754219 25.76H2.11422C3.60755 25.7333 4.44755 25.6267 4.63422 25.44C4.71422 25.3867 5.67422 21.68 7.51422 14.32C9.35422 6.96 10.2742 3.25333 10.2742 3.2C10.2742 3.17333 10.2476 3.13333 10.1942 3.08C10.0876 3.02667 9.36755 2.97333 8.03422 2.92H6.67422L6.51422 2.76C6.43422 2.68 6.39422 2.6 6.39422 2.52L6.83422 0.879999C6.83422 0.853332 6.87422 0.799999 6.95422 0.719998ZM43.9564 10.36H45.5564C47.4764 10.6533 48.7031 11.5333 49.2364 13C49.3964 13.5333 49.4231 14.08 49.3164 14.64C48.8631 16.6933 47.3831 18.04 44.8764 18.68C43.7564 19 41.9031 19.2 39.3164 19.28H38.0364L37.9564 19.52C37.8497 19.9733 37.7164 20.6667 37.5564 21.6C37.4497 22.4533 37.4497 23.2133 37.5564 23.88C37.7164 24.6533 38.0497 25.28 38.5564 25.76C39.1697 26.32 39.9964 26.5867 41.0364 26.56C43.1697 26.4267 44.9697 25.8133 46.4364 24.72C46.9431 24.4 47.3697 24.0133 47.7164 23.56C48.0097 23.2133 48.2497 23.1067 48.4364 23.24C48.5164 23.2933 48.6631 23.4267 48.8764 23.64C49.2497 24.04 49.4231 24.2933 49.3964 24.4C49.3697 24.5333 49.0764 24.88 48.5164 25.44C46.8364 27.04 44.6764 28 42.0364 28.32C41.1297 28.48 40.3297 28.5067 39.6364 28.4C37.1297 28.1333 35.3831 26.8667 34.3964 24.6C34.2097 24.2 34.0631 23.7733 33.9564 23.32C33.7697 22.6533 33.6764 21.8133 33.6764 20.8C33.7031 19.2267 34.0497 17.7867 34.7164 16.48C35.1964 15.4933 35.8497 14.5867 36.6764 13.76C37.0764 13.3867 37.5697 12.9733 38.1564 12.52C39.7831 11.32 41.5431 10.6133 43.4364 10.4C43.5697 10.3733 43.7431 10.36 43.9564 10.36ZM45.0364 12.24C44.0497 12.0533 43.0097 12.24 41.9164 12.8C40.3431 13.52 39.2497 14.9067 38.6364 16.96C38.5831 17.1733 38.5431 17.2933 38.5164 17.32C38.5164 17.3733 38.9564 17.4 39.8364 17.4C41.5697 17.3733 42.8764 17.2533 43.7564 17.04C45.5697 16.6667 46.6364 15.8933 46.9564 14.72C47.0631 14.2933 47.0497 13.92 46.9164 13.6C46.6764 12.9067 46.0497 12.4533 45.0364 12.24ZM61.5892 10.36C61.6159 10.3333 61.8559 10.32 62.3092 10.32C62.7892 10.3733 63.1226 10.4133 63.3092 10.44C64.1892 10.7067 64.9092 11.16 65.4692 11.8L65.6692 12.08L65.9492 11.8C66.6692 11.1333 67.4159 10.9467 68.1892 11.24C68.5892 11.3733 68.8559 11.6267 68.9892 12C69.0959 12.32 69.0292 12.9867 68.7892 14C68.6292 14.6933 68.2559 16.2 67.6692 18.52C66.7359 22.1733 66.2426 24.1867 66.1892 24.56C66.0826 25.1467 66.0959 25.6267 66.2292 26C66.3892 26.4267 66.6959 26.6133 67.1492 26.56C67.4692 26.5333 67.8026 26.28 68.1492 25.8C68.5226 25.24 68.9092 24.2 69.3092 22.68C69.4159 22.2267 69.5359 21.9733 69.6692 21.92C69.7492 21.8933 70.0026 21.88 70.4292 21.88C70.9359 21.88 71.2159 21.9067 71.2692 21.96C71.4292 22.0667 71.4292 22.3733 71.2692 22.88C70.5759 25.36 69.6826 27 68.5892 27.8C68.1626 28.12 67.7359 28.32 67.3092 28.4C66.7492 28.48 66.1492 28.44 65.5092 28.28C64.3092 28.0133 63.4559 27.3867 62.9492 26.4L62.8292 26.12L62.5892 26.32C60.4826 28.1333 58.4026 28.7733 56.3492 28.24C55.7626 28.08 55.2159 27.84 54.7092 27.52C53.1892 26.4533 52.3226 24.8667 52.1092 22.76C52.0026 22.04 52.0159 21.2667 52.1492 20.44C52.4959 18.2 53.4159 16.1467 54.9092 14.28C55.4159 13.6667 55.9759 13.1067 56.5892 12.6C58.1092 11.3467 59.6426 10.6133 61.1892 10.4C61.2959 10.3733 61.4292 10.36 61.5892 10.36ZM62.7492 12.32C62.2159 12.1867 61.7759 12.16 61.4292 12.24C60.6026 12.4 59.8026 12.8667 59.0292 13.64C58.2559 14.4667 57.5759 15.9333 56.9892 18.04C56.8559 18.52 56.7092 19.08 56.5492 19.72C56.0959 21.5333 55.8692 22.88 55.8692 23.76C55.8692 24.5867 56.0426 25.24 56.3892 25.72C56.8959 26.3867 57.6026 26.6533 58.5092 26.52C59.5226 26.4133 60.5626 25.8267 61.6292 24.76C62.1092 24.28 62.4692 23.84 62.7092 23.44C62.7092 23.52 63.0692 22.12 63.7892 19.24L64.7892 15.12L64.7492 14.84C64.4026 13.5067 63.7359 12.6667 62.7492 12.32ZM76.8411 10.36C77.3211 10.3067 77.8678 10.32 78.4811 10.4C79.7344 10.6933 80.6278 11.3067 81.1611 12.24L81.2811 12.44L81.5211 12.16C82.0811 11.6 82.6678 11.1733 83.2811 10.88C83.9744 10.5333 84.7478 10.36 85.6011 10.36C86.0811 10.36 86.4144 10.3867 86.6011 10.44C87.0811 10.5733 87.5478 10.8 88.0011 11.12C88.9078 11.8667 89.3078 12.88 89.2011 14.16C89.2011 14.24 89.2011 14.3067 89.2011 14.36C89.0411 15.6667 88.4811 16.5467 87.5211 17C86.7744 17.3467 86.0678 17.3733 85.4011 17.08C84.6278 16.7067 84.3344 16.0267 84.5211 15.04C84.6278 14.5067 84.8811 14.0133 85.2811 13.56C85.6278 13.24 86.0144 13.0133 86.4411 12.88L86.7211 12.76L86.6011 12.64C85.9878 12.1333 85.2144 12.0533 84.2811 12.4C83.3478 12.7733 82.4944 13.64 81.7211 15L81.4011 15.48L80.0011 21.2C79.0144 25.04 78.4811 27.04 78.4011 27.2C78.0278 28 77.4011 28.4133 76.5211 28.44C76.0944 28.44 75.7211 28.32 75.4011 28.08C75.2678 28.0267 75.1478 27.88 75.0411 27.64C74.9078 27.3733 74.8944 26.9733 75.0011 26.44C75.1344 25.8267 75.6011 23.9067 76.4011 20.68C77.4411 16.5467 77.9744 14.4 78.0011 14.24C78.1878 12.9333 77.9344 12.2533 77.2411 12.2C77.1611 12.2 77.0811 12.2 77.0011 12.2C76.2011 12.36 75.4944 13.6667 74.8811 16.12C74.7744 16.44 74.7211 16.6133 74.7211 16.64C74.4278 16.8 74.1078 16.88 73.7611 16.88H73.0011L72.8811 16.76C72.7744 16.6533 72.7744 16.3733 72.8811 15.92C73.3878 14.0533 74.0144 12.6533 74.7611 11.72C75.3478 11 76.0411 10.5467 76.8411 10.36ZM98.768 3C99.168 2.89333 99.5413 2.92 99.888 3.08C100.288 3.21333 100.555 3.46667 100.688 3.84C100.795 4.16 100.715 4.82667 100.448 5.84C100.368 6.18667 100.221 6.78667 100.008 7.64C99.528 9.64 99.2746 10.6533 99.248 10.68C99.248 10.7333 99.888 10.76 101.168 10.76H103.088L103.208 10.88C103.368 10.9867 103.368 11.3333 103.208 11.92C103.128 12.32 103.048 12.6 102.968 12.76C102.888 12.8933 102.621 12.9733 102.168 13C101.955 13 101.461 13 100.688 13H98.688L98.648 13.16C98.648 13.24 98.1813 15.0933 97.248 18.72C96.3946 22.1333 95.928 24.08 95.848 24.56C95.7413 25.1467 95.7546 25.6267 95.888 26C96.0746 26.4533 96.5146 26.6267 97.208 26.52C98.3546 26.28 99.3813 25.4667 100.288 24.08C100.741 23.3867 101.035 22.8267 101.168 22.4C101.301 22.1067 101.448 21.9467 101.608 21.92C101.715 21.8933 101.941 21.88 102.288 21.88C102.795 21.88 103.088 21.9067 103.168 21.96C103.328 22.12 103.288 22.44 103.048 22.92C102.381 24.36 101.555 25.56 100.568 26.52C100.008 27.08 99.448 27.4933 98.888 27.76C98.4613 28 97.9946 28.1867 97.488 28.32C97.248 28.3733 96.8746 28.4 96.368 28.4C95.8613 28.4 95.4613 28.36 95.168 28.28C94.208 28.04 93.4613 27.5867 92.928 26.92C92.5813 26.44 92.368 25.9467 92.288 25.44C92.2346 25.2267 92.208 24.92 92.208 24.52L92.248 23.96L93.608 18.52C94.5146 14.9467 94.968 13.12 94.968 13.04C94.968 13.0133 94.328 13 93.048 13C91.7146 13 90.9946 12.9067 90.888 12.72C90.8346 12.64 90.8613 12.3467 90.968 11.84C91.128 11.3067 91.2213 11.0267 91.248 11C91.328 10.8667 91.5946 10.7867 92.048 10.76C92.2613 10.76 92.7546 10.76 93.528 10.76H95.568L96.328 7.6C96.888 5.33333 97.2613 4.09333 97.448 3.88C97.5013 3.82667 97.5813 3.74667 97.688 3.64C97.9813 3.34667 98.3413 3.13333 98.768 3ZM108.541 1.04L108.661 0.919998H120.541C128.541 0.919998 132.608 0.999999 132.741 1.16C132.794 1.29333 132.568 2.89333 132.061 5.96C131.528 9.10667 131.248 10.6933 131.221 10.72C131.114 10.8533 130.794 10.92 130.261 10.92C129.701 10.92 129.394 10.84 129.341 10.68C129.288 10.5733 129.301 10.24 129.381 9.68C129.781 7.25333 129.861 5.62667 129.621 4.8C129.381 4 128.541 3.48 127.101 3.24C126.861 3.21333 126.088 3.2 124.781 3.2C123.261 3.17333 122.434 3.24 122.301 3.4C122.248 3.45333 121.314 7.14667 119.501 14.48L116.741 25.48L116.861 25.56C117.208 25.6933 118.528 25.76 120.821 25.76H122.061L122.221 25.88C122.301 25.9867 122.341 26.08 122.341 26.16L121.981 27.76C121.901 27.92 121.634 27.9867 121.181 27.96C121.021 27.96 120.634 27.96 120.021 27.96C114.448 27.8533 110.101 27.8667 106.981 28H106.381L106.261 27.88C106.128 27.7467 106.114 27.44 106.221 26.96C106.221 26.9067 106.234 26.8533 106.261 26.8C106.394 26.2133 106.514 25.8933 106.621 25.84C106.701 25.7867 107.168 25.76 108.021 25.76C109.808 25.76 110.968 25.72 111.501 25.64C111.928 25.6133 112.221 25.52 112.381 25.36C112.434 25.28 113.368 21.5867 115.181 14.28C117.021 6.94667 117.941 3.26667 117.941 3.24C117.834 3.18667 117.008 3.16 115.461 3.16C114.234 3.18667 113.488 3.22667 113.221 3.28C111.674 3.52 110.541 4.08 109.821 4.96C109.128 5.81333 108.381 7.42667 107.581 9.8C107.368 10.3867 107.261 10.6933 107.261 10.72C107.154 10.8533 106.834 10.92 106.301 10.92C105.768 10.92 105.448 10.8267 105.341 10.64L105.301 10.52L106.821 5.84C107.888 2.72 108.461 1.12 108.541 1.04ZM138.62 10.36C138.647 10.3333 138.887 10.32 139.34 10.32C139.82 10.3733 140.154 10.4133 140.34 10.44C141.22 10.7067 141.94 11.16 142.5 11.8L142.7 12.08L142.98 11.8C143.7 11.1333 144.447 10.9467 145.22 11.24C145.62 11.3733 145.887 11.6267 146.02 12C146.127 12.32 146.06 12.9867 145.82 14C145.66 14.6933 145.287 16.2 144.7 18.52C143.767 22.1733 143.274 24.1867 143.22 24.56C143.114 25.1467 143.127 25.6267 143.26 26C143.42 26.4267 143.727 26.6133 144.18 26.56C144.5 26.5333 144.834 26.28 145.18 25.8C145.554 25.24 145.94 24.2 146.34 22.68C146.447 22.2267 146.567 21.9733 146.7 21.92C146.78 21.8933 147.034 21.88 147.46 21.88C147.967 21.88 148.247 21.9067 148.3 21.96C148.46 22.0667 148.46 22.3733 148.3 22.88C147.607 25.36 146.714 27 145.62 27.8C145.194 28.12 144.767 28.32 144.34 28.4C143.78 28.48 143.18 28.44 142.54 28.28C141.34 28.0133 140.487 27.3867 139.98 26.4L139.86 26.12L139.62 26.32C137.514 28.1333 135.434 28.7733 133.38 28.24C132.794 28.08 132.247 27.84 131.74 27.52C130.22 26.4533 129.354 24.8667 129.14 22.76C129.034 22.04 129.047 21.2667 129.18 20.44C129.527 18.2 130.447 16.1467 131.94 14.28C132.447 13.6667 133.007 13.1067 133.62 12.6C135.14 11.3467 136.674 10.6133 138.22 10.4C138.327 10.3733 138.46 10.36 138.62 10.36ZM139.78 12.32C139.247 12.1867 138.807 12.16 138.46 12.24C137.634 12.4 136.834 12.8667 136.06 13.64C135.287 14.4667 134.607 15.9333 134.02 18.04C133.887 18.52 133.74 19.08 133.58 19.72C133.127 21.5333 132.9 22.88 132.9 23.76C132.9 24.5867 133.074 25.24 133.42 25.72C133.927 26.3867 134.634 26.6533 135.54 26.52C136.554 26.4133 137.594 25.8267 138.66 24.76C139.14 24.28 139.5 23.84 139.74 23.44C139.74 23.52 140.1 22.12 140.82 19.24L141.82 15.12L141.78 14.84C141.434 13.5067 140.767 12.6667 139.78 12.32ZM156.312 0.479999C158.499 0.32 159.566 0.24 159.512 0.24C159.752 0.24 159.912 0.333333 159.992 0.519999C160.019 0.626665 159.059 4.6 157.112 12.44L154.112 24.52C154.086 24.6267 154.072 24.8533 154.072 25.2C154.072 25.8933 154.232 26.32 154.552 26.48C155.246 26.7733 155.846 26.36 156.352 25.24C156.566 24.84 156.832 24.04 157.152 22.84C157.312 22.28 157.446 21.9733 157.552 21.92C157.606 21.8933 157.859 21.88 158.312 21.88C158.819 21.88 159.112 21.9067 159.192 21.96C159.246 22.0133 159.272 22.12 159.272 22.28C159.272 22.6267 159.072 23.3467 158.672 24.44C158.246 25.4533 157.886 26.1867 157.592 26.64C156.979 27.52 156.272 28.08 155.472 28.32C155.286 28.3733 154.992 28.4 154.592 28.4C153.952 28.4 153.419 28.32 152.992 28.16C151.659 27.68 150.846 26.7867 150.552 25.48C150.446 24.8667 150.446 24.3467 150.552 23.92C150.552 23.9467 151.379 20.5733 153.032 13.8C154.739 6.97333 155.539 3.45333 155.432 3.24C155.246 3.05333 154.672 2.94666 153.712 2.92H152.872L152.712 2.76C152.606 2.65333 152.619 2.30667 152.752 1.72C152.912 1.10667 153.046 0.773333 153.152 0.719998C153.179 0.719998 154.232 0.639999 156.312 0.479999ZM169.426 0.479999C171.56 0.32 172.6 0.24 172.546 0.24C172.786 0.24 172.946 0.333333 173.026 0.519999C173.053 0.626665 172.4 3.37333 171.066 8.76L169.026 16.84L169.226 16.72C169.973 16.2667 171.053 15.3733 172.466 14.04C173.346 13.1867 174.053 12.5333 174.586 12.08C176.053 10.8533 177.453 10.2667 178.786 10.32C179.213 10.3467 179.56 10.44 179.826 10.6C180.386 10.8933 180.773 11.4267 180.986 12.2C181.146 12.84 181.173 13.5733 181.066 14.4C180.826 15.68 180.253 16.5467 179.346 17C178.6 17.3467 177.893 17.3733 177.226 17.08C176.453 16.7067 176.16 16.0267 176.346 15.04C176.453 14.5067 176.706 14.0133 177.106 13.56C177.64 13.08 178.213 12.8 178.826 12.72C178.986 12.72 179.066 12.7067 179.066 12.68C179.066 12.6 178.973 12.4667 178.786 12.28C178.493 12.0667 177.906 12.12 177.026 12.44C176.626 12.5733 176.16 12.8267 175.626 13.2C174.96 13.6267 173.973 14.48 172.666 15.76C171.84 16.56 171.213 17.1467 170.786 17.52C170.653 17.6267 170.626 17.6933 170.706 17.72C170.786 17.72 170.96 17.7467 171.226 17.8C172.16 18.04 172.853 18.28 173.306 18.52C174.4 19.0267 175.16 19.72 175.586 20.6C175.773 20.9733 175.866 21.4667 175.866 22.08C175.866 22.5067 175.826 22.9067 175.746 23.28C175.586 23.9467 175.506 24.56 175.506 25.12C175.506 25.7333 175.6 26.1333 175.786 26.32C176 26.5333 176.346 26.5867 176.826 26.48C177.12 26.4 177.386 26.2267 177.626 25.96C178.186 25.4 178.72 24.1467 179.226 22.2C179.28 22.0133 179.48 21.9067 179.826 21.88C179.906 21.88 180.04 21.88 180.226 21.88C180.733 21.88 181.013 21.9067 181.066 21.96C181.226 22.0667 181.226 22.3867 181.066 22.92C180.666 24.36 180.093 25.5733 179.346 26.56C178.68 27.4933 177.893 28.08 176.986 28.32C176.8 28.3733 176.48 28.4 176.026 28.4C175.546 28.4 175.2 28.3733 174.986 28.32C174.426 28.16 173.973 27.96 173.626 27.72C172.666 27.08 172.106 26.1067 171.946 24.8C171.893 24.2667 171.933 23.7467 172.066 23.24C172.2 22.5467 172.2 22 172.066 21.6C171.693 20.56 170.64 19.8533 168.906 19.48L168.426 19.4L167.466 23.16C166.8 25.7467 166.44 27.0933 166.386 27.2C166.12 27.76 165.666 28.1467 165.026 28.36C164.6 28.4667 164.173 28.4533 163.746 28.32C163.426 28.1867 163.173 27.9467 162.986 27.6C162.853 27.3867 162.826 27.1067 162.906 26.76C162.986 26.2267 163.906 22.4267 165.666 15.36C167.64 7.52 168.573 3.48 168.466 3.24C168.28 3.05333 167.706 2.94666 166.746 2.92C166.106 2.92 165.746 2.82667 165.666 2.64C165.613 2.56 165.653 2.25333 165.786 1.72C165.92 1.16 166.026 0.853332 166.106 0.8C166.186 0.719999 166.266 0.679999 166.346 0.679999L169.426 0.479999Z" fill="#FDFDFD"/>
</svg>
